<mxfile host="Electron" agent="Mozilla/5.0 (Windows NT 10.0; Win64; x64) AppleWebKit/537.36 (KHTML, like Gecko) draw.io/26.0.4 Chrome/128.0.6613.186 Electron/32.2.5 Safari/537.36" version="26.0.4" pages="2">
  <diagram name="Page-1" id="6ef_2Vwstoa_3FDqgM2N">
    <mxGraphModel dx="683" dy="478" grid="1" gridSize="10" guides="1" tooltips="1" connect="1" arrows="1" fold="1" page="1" pageScale="1" pageWidth="320" pageHeight="140" math="0" shadow="0">
      <root>
        <mxCell id="0" />
        <mxCell id="1" parent="0" />
        <mxCell id="lvOxmLhK2ll98FZpLf1e-1" value="&lt;h1 style=&quot;margin-top: 0px;&quot;&gt;Condensed&lt;/h1&gt;&lt;p&gt;Finally, condensing features and optimising the system to allow expansion but also designing it for the average user rather than feature specific.&lt;/p&gt;" style="text;html=1;whiteSpace=wrap;overflow=hidden;rounded=0;" vertex="1" parent="1">
          <mxGeometry x="20" y="20" width="280" height="100" as="geometry" />
        </mxCell>
      </root>
    </mxGraphModel>
  </diagram>
  <diagram id="gtsGb9Y6w7Mu2uTui1ts" name="Page-2">
    <mxGraphModel dx="478" dy="335" grid="1" gridSize="10" guides="1" tooltips="1" connect="1" arrows="1" fold="1" page="1" pageScale="1" pageWidth="2400" pageHeight="1800" math="0" shadow="0">
      <root>
        <mxCell id="0" />
        <mxCell id="1" parent="0" />
      </root>
    </mxGraphModel>
  </diagram>
</mxfile>
